<svg xmlns="http://www.w3.org/2000/svg" data-name="Layer 1" viewBox="0 0 100 125" x="0px" y="0px"><title>Artboard 18</title><path d="M88.31,95.54H11.69a6.25,6.25,0,0,1,0-12.5H14V57.17a1.5,1.5,0,0,1,3,0V84.55a1.5,1.5,0,0,1-1.5,1.5H11.69a3.26,3.26,0,0,0,0,6.5H88.31a3.26,3.26,0,0,0,0-6.5H84.49a1.5,1.5,0,0,1-1.5-1.5V57.17a1.5,1.5,0,1,1,3,0V83h2.32a6.25,6.25,0,0,1,0,12.5ZM25,54.92a1.5,1.5,0,0,0-1.5,1.5V84.55A1.5,1.5,0,0,0,25,86H75a1.5,1.5,0,0,0,1.5-1.5V56.42a1.5,1.5,0,0,0-3,0V83h-47V56.42A1.5,1.5,0,0,0,25,54.92ZM6,47a13.37,13.37,0,0,1-.74-12.35L16.75,9.06a7.82,7.82,0,0,1,7.12-4.61H76.13a7.82,7.82,0,0,1,7.12,4.61l11.5,25.59A13.37,13.37,0,0,1,94,47a12.54,12.54,0,0,1-10,6.18c-.31,0-.62,0-.94,0A13.78,13.78,0,0,1,72,47.61,13.78,13.78,0,0,1,61,53.22a13.61,13.61,0,0,1-11-5.48,13.61,13.61,0,0,1-11,5.48A13.78,13.78,0,0,1,28,47.61a13.78,13.78,0,0,1-11.05,5.61c-.32,0-.63,0-.94,0A12.54,12.54,0,0,1,6,47Zm2.57-1.54a9.58,9.58,0,0,0,7.63,4.73h0l.73,0a10.77,10.77,0,0,0,9.69-6.17,1.5,1.5,0,0,1,2.71,0A10.76,10.76,0,0,0,39,50.22a10.66,10.66,0,0,0,9.62-6,1.5,1.5,0,0,1,2.69,0,10.65,10.65,0,0,0,9.62,6,10.77,10.77,0,0,0,9.69-6.17,1.5,1.5,0,0,1,2.71,0,10.76,10.76,0,0,0,9.69,6.17l.73,0a9.58,9.58,0,0,0,7.64-4.73A10.37,10.37,0,0,0,92,35.88L80.51,10.3a4.82,4.82,0,0,0-4.39-2.84H23.88a4.82,4.82,0,0,0-4.39,2.84L8,35.88A10.37,10.37,0,0,0,8.56,45.46Z"/><text x="0" y="115" fill="#000000" font-size="5px" font-weight="bold" font-family="'Helvetica Neue', Helvetica, Arial-Unicode, Arial, Sans-serif">Created by Gregor Cresnar</text><text x="0" y="120" fill="#000000" font-size="5px" font-weight="bold" font-family="'Helvetica Neue', Helvetica, Arial-Unicode, Arial, Sans-serif">from the Noun Project</text></svg>