<svg xmlns:dc="http://purl.org/dc/elements/1.1/" xmlns:cc="http://creativecommons.org/ns#" xmlns:rdf="http://www.w3.org/1999/02/22-rdf-syntax-ns#" xmlns:svg="http://www.w3.org/2000/svg" xmlns="http://www.w3.org/2000/svg" xmlns:sodipodi="http://sodipodi.sourceforge.net/DTD/sodipodi-0.dtd" xmlns:inkscape="http://www.inkscape.org/namespaces/inkscape" version="1.1" x="0px" y="0px" viewBox="0 0 100 125"><g transform="translate(0,-952.36218)"><path style="text-indent:0;text-transform:none;direction:ltr;block-progression:tb;baseline-shift:baseline;color:#000000;enable-background:accumulate;" d="m 49.999957,957.36218 c 5.191003,0 10.099505,0.43604 14.15625,2.625 4.056745,2.18896 6.843749,6.59077 6.84375,12.375 l 0,13 17,0 a 3.0003,3.0003 0 0 1 0.3125,0 3.0003,3.0003 0 0 1 2.6875,3 l 0,13.00002 a 3.0003,3.0003 0 0 1 -0.09375,0.6562 l -10.03125,43 a 3.0003,3.0003 0 0 1 -2.9375,2.3438 l -27.9375,0 -27.9375,0 a 3.0003,3.0003 0 0 1 -2.9375,-2.3438 l -10.0312499,-43 a 3.0003,3.0003 0 0 1 -0.09375,-0.6562 l 0,-13.00002 a 3.0003,3.0003 0 0 1 2.9999999,-3 l 17,0 0,-13 c -10e-7,-5.8028 2.783857,-10.2225 6.84375,-12.40625 4.059893,-2.18375 8.969688,-2.59375 14.15625,-2.59375 z m 0,6 c -4.785436,0 -8.865393,0.55874 -11.3125,1.875 -2.447107,1.31626 -3.6875,2.9278 -3.6875,7.125 l 0,13 2,0 0,-9 c -1e-6,-4.34467 1.504362,-7.82435 4.15625,-9.75 2.651888,-1.92565 5.80299,-2.25 8.84375,-2.25 3.046755,0 6.196122,0.32136 8.84375,2.25 2.647628,1.92864 4.156249,5.41929 4.15625,9.75 l 0,9 2,0 0,-13 c -10e-7,-4.17149 -1.237247,-5.77163 -3.6875,-7.09375 -2.450253,-1.32212 -6.531504,-1.90625 -11.3125,-1.90625 z m 0,7 c -2.499241,0 -4.349387,0.39439 -5.3125,1.09375 -0.963113,0.69936 -1.6875,1.75092 -1.6875,4.90625 l 0,9 7,0 7,0 0,-9 c 0,-3.13608 -0.720128,-4.17033 -1.6875,-4.875 -0.967372,-0.70467 -2.819254,-1.125 -5.3125,-1.125 z m 35,21 -24.78125,0 -10.21875,0 -10,0 -0.3125,0 -7.6875,0 -17,0 0,6 70,0 0,-6 z m -0.53125,12.00002 -68.9375,0 6.09375,26 56.75,0 6.09375,-26 z m -19.4375,1.9375 a 3.0003,3.0003 0 0 1 2.96875,3.0625 l 0,16 a 3.0003,3.0003 0 1 1 -6,0 l 0,-16 a 3.0003,3.0003 0 0 1 3.03125,-3.0625 z m -15,0 a 3.0003,3.0003 0 0 1 2.96875,3.0625 l 0,16 a 3.0003,3.0003 0 1 1 -6,0 l 0,-16 a 3.0003,3.0003 0 0 1 3.03125,-3.0625 z m -15,0 a 3.0003,3.0003 0 0 1 2.96875,3.0625 l 0,16 a 3.0003,3.0003 0 1 1 -6,0 l 0,-16 a 3.0003,3.0003 0 0 1 3.03125,-3.0625 z m 41.9375,30.0625 -53.9375,0 1.40625,6 25.34375,0 0.21875,0 0.3125,0 25.25,0 1.40625,-6 z" fill="#000000" fill-opacity="1" stroke="none" marker="none" visibility="visible" display="inline" overflow="visible"/></g><text x="0" y="115" fill="#000000" font-size="5px" font-weight="bold" font-family="'Helvetica Neue', Helvetica, Arial-Unicode, Arial, Sans-serif">Created by Amiryshakiel</text><text x="0" y="120" fill="#000000" font-size="5px" font-weight="bold" font-family="'Helvetica Neue', Helvetica, Arial-Unicode, Arial, Sans-serif">from the Noun Project</text></svg>