<svg xmlns="http://www.w3.org/2000/svg" xmlns:xlink="http://www.w3.org/1999/xlink" version="1.1" x="0px" y="0px" viewBox="206 296 200 250" enable-background="new 206 296 200 200" xml:space="preserve"><path d="M380.892,385.373c-4.643-4.664-9.232-6.931-14.025-6.931c-8.014,0-14.521,6.362-20.813,12.516  c-4.553,4.45-8.896,8.69-13.18,9.899l0.058-69.948c0-6.936-5.642-12.579-12.577-12.579s-12.577,5.643-12.577,12.579v39.985  l-11.979-49.966c-1.618-6.745-8.421-10.917-15.165-9.299c-6.743,1.618-10.915,8.419-9.297,15.167l10.756,44.479l-15.34-32.913  c-2.93-6.286-10.429-9.017-16.714-6.087c-3.046,1.419-5.357,3.939-6.506,7.097c-1.15,3.157-1.001,6.573,0.418,9.619l16.415,35.216  l-14.667-18.941c-1.706-2.397-4.244-3.986-7.146-4.474c-2.903-0.49-5.82,0.185-8.216,1.891c-2.257,1.607-3.676,3.859-4.103,6.513  c-0.575,3.576,0.718,7.642,3.72,11.732l19.416,27.267c1.364,15.169,4.195,25.158,7.998,34.694  c3.929,9.854,7.312,18.437,7.511,30.488v3.429h2.38h2.297h56.883c0.07,0,0.138-0.015,0.204-0.021h2.135v-2.321  c0-24.294,6.24-30.651,14.14-38.697c2.109-2.159,4.295-4.387,6.483-7.085c3.574-4.404,6.391-8.789,9.384-13.428  c5.486-8.524,11.163-17.339,21.962-26.441c0.498-0.427,0.801-1.035,0.833-1.69C381.601,386.47,381.353,385.833,380.892,385.373z   M354.849,412.717c-2.916,4.529-5.673,8.812-9.086,13.02c-2.041,2.522-4.153,4.674-6.189,6.753  c-7.718,7.858-15.013,15.302-15.45,39.641h-54.568c-0.408-12.335-4.027-21.406-7.846-30.975c-3.535-8.862-5.884-19.92-7.719-33.774  l-0.003-0.005c0.008-0.485-0.125-0.977-0.428-1.402l-19.796-27.801c-2.26-3.081-3.259-5.927-2.889-8.233  c0.226-1.403,0.962-2.557,2.188-3.43c1.375-0.979,3.048-1.363,4.711-1.084c1.664,0.279,3.118,1.19,4.152,2.64l27.59,35.633  c0.731,0.945,2.059,1.19,3.081,0.568c1.022-0.623,1.413-1.915,0.907-3l-25.293-54.263c-0.889-1.908-0.982-4.048-0.262-6.025  c0.72-1.978,2.167-3.556,4.075-4.445c3.938-1.834,8.634-0.124,10.469,3.813l25.291,54.263c0.51,1.094,1.767,1.623,2.906,1.226  c1.14-0.399,1.792-1.597,1.508-2.771l-16.292-67.37c-1.012-4.223,1.601-8.483,5.824-9.497c4.222-1.014,8.485,1.601,9.498,5.824  l16.613,69.301c0.277,1.158,1.378,1.919,2.561,1.786c1.184-0.14,2.074-1.143,2.074-2.334v-59.868c0-4.344,3.534-7.878,7.878-7.878  s7.878,3.534,7.878,7.878l-0.058,72.617c0,0.623,0.268,1.219,0.705,1.655c0.438,0.448,1.054,0.692,1.681,0.692  c6.93,0,12.944-5.883,18.763-11.568c5.624-5.499,11.438-11.185,17.544-11.185c2.899,0,5.818,1.263,8.863,3.844  C365.684,395.896,360.181,404.436,354.849,412.717z"/><text x="206" y="511" fill="#000000" font-size="5px" font-weight="bold" font-family="'Helvetica Neue', Helvetica, Arial-Unicode, Arial, Sans-serif">Created by Rudy Jaspers</text><text x="206" y="516" fill="#000000" font-size="5px" font-weight="bold" font-family="'Helvetica Neue', Helvetica, Arial-Unicode, Arial, Sans-serif">from the Noun Project</text></svg>